<?xml version="1.0" encoding="utf-8"?>
<!-- Generator: Adobe Illustrator 24.1.1, SVG Export Plug-In . SVG Version: 6.00 Build 0)  -->
<svg version="1.1" id="Capa_1" xmlns="http://www.w3.org/2000/svg" xmlns:xlink="http://www.w3.org/1999/xlink" x="0px" y="0px"
	 viewBox="0 0 54.2 23.3" style="enable-background:new 0 0 54.2 23.3;" xml:space="preserve">
<style type="text/css">
	.st0{fill:#B5B5B5;}
</style>
<g id="Sin_título-1" transform="translate(80.5 -12)">
	<path id="Trazado_1" class="st0" d="M-26.5,29.7c-1.7,2-3.1,3.4-5.1,5.4c-3.4-3.7-6.9-7.1-10.6-11.1c-3.7,3.7-7.1,7.4-10.6,11.1
		c-1.7-2-3.1-3.4-5.1-5.4c5.1-5.7,10-11.4,15.4-17.4C-36.8,18.3-31.9,24-26.5,29.7z"/>
	<path id="Trazado_2" class="st0" d="M-64.2,29.7c-2,2-3.4,3.7-5.1,5.4c-3.7-4-7.1-7.7-10.9-11.7C-78.5,21.7-77,20-75,18
		C-71.3,22-67.9,25.7-64.2,29.7z"/>
</g>
</svg>
